<svg xmlns="http://www.w3.org/2000/svg" viewBox="0 0 40 34.3" width="40" height="34.3"><metadata><?xpacket begin="﻿" id="W5M0MpCehiHzreSzNTczkc9d"?>
<x:xmpmeta xmlns:x="adobe:ns:meta/" x:xmptk="Adobe XMP Core 5.6-c137 79.159768, 2016/08/11-13:24:42        ">
   <rdf:RDF xmlns:rdf="http://www.w3.org/1999/02/22-rdf-syntax-ns#">
      <rdf:Description rdf:about=""/>
   </rdf:RDF>
</x:xmpmeta>
                                                                                                    
                                                                                                    
                                                                                                    
                                                                                                    
                                                                                                    
                                                                                                    
                                                                                                    
                                                                                                    
                                                                                                    
                                                                                                    
                                                                                                    
                                                                                                    
                                                                                                    
                                                                                                    
                                                                                                    
                                                                                                    
                                                                                                    
                                                                                                    
                                                                                                    
                                                                                                    
                           
<?xpacket end="w"?></metadata>
<path d="M19.4 28.8c1.3 1.3 1.3 3.3 0 4.6-.6.6-1.5.9-2.3.9s-1.6-.3-2.3-.9L.9 19.4C.3 18.8 0 18 0 17.1c0-.8.3-1.7.9-2.3L14.9.9c1.3-1.3 3.3-1.3 4.6 0 1.3 1.3 1.3 3.3 0 4.6L7.8 17.1l11.6 11.7zm7.9-11.7L39 5.5c1.3-1.3 1.3-3.3 0-4.6-1.3-1.3-3.3-1.3-4.6 0l-13.9 14c-.6.6-.9 1.5-.9 2.3 0 .8.3 1.7.9 2.3l13.9 13.9c.6.6 1.5.9 2.3.9s1.6-.3 2.3-.9c1.3-1.3 1.3-3.3 0-4.6L27.3 17.1z"/></svg>