<svg xmlns="http://www.w3.org/2000/svg" viewBox="0 0 300 54.8" width="300" height="54.8"><path d="M35.5 43.5c.3-.1.7-.1 1-.1.2.1.4.2.5.3l7.3 5.6 1.4-9.1c.1-.3.2-.6.4-.8l6.2-2.5V11.1L28 3.2v43.2l7.5-2.9zM28 0l28 8.8v29.7l-7.4 2.9-2.1 13.3-10.7-8.2-7.8 3.2L0 38.6V8.8L28 0zm245.3 42.3h4.4l8.9-13.2 8.8 13.2h4.7l-11-15.7 10-14.1h-4.4l-7.9 11.6-8-11.6h-4.5l10 14.1-11 15.7zm-26.4-3.5c-1.4-.6-2.7-1.5-3.7-2.6s-1.8-2.4-2.4-3.9c-.6-1.5-.9-3.1-.9-4.8 0-1.7.3-3.3.9-4.8.6-1.5 1.4-2.8 2.4-3.9s2.3-2 3.7-2.6c1.4-.6 3-1 4.8-1 1.7 0 3.3.3 4.8 1 1.4.6 2.7 1.5 3.7 2.6s1.8 2.4 2.4 3.9c.6 1.5.9 3.1.9 4.8 0 1.7-.3 3.3-.9 4.8-.6 1.5-1.4 2.8-2.4 3.9s-2.3 2-3.7 2.6c-1.4.6-3 1-4.8 1-1.7-.1-3.3-.4-4.8-1m11 3c1.9-.8 3.5-1.9 4.9-3.3s2.5-3 3.2-5c.8-1.9 1.2-4 1.2-6.2s-.4-4.3-1.2-6.2c-.8-1.9-1.8-3.6-3.2-5-1.4-1.4-3-2.5-4.9-3.3-1.9-.8-4-1.2-6.2-1.2-2.3 0-4.3.4-6.2 1.2-1.9.8-3.5 1.9-4.9 3.3-1.4 1.4-2.5 3-3.2 5-.8 1.9-1.2 4-1.2 6.2s.4 4.3 1.2 6.2c.8 1.9 1.8 3.6 3.2 5s3 2.5 4.9 3.3c1.9.8 4 1.2 6.2 1.2 2.3 0 4.3-.4 6.2-1.2m-47.2-13.4h6c.9 0 1.8.1 2.6.3.9.2 1.6.5 2.3.9.7.4 1.2 1 1.6 1.7.4.7.6 1.6.6 2.6s-.2 1.8-.6 2.4c-.4.7-1 1.2-1.7 1.6-.7.4-1.5.7-2.3.9-.9.2-1.7.3-2.6.3h-6V28.4zm0-12.6h5.3c.8 0 1.6.1 2.3.2.8.1 1.5.4 2.1.7.6.3 1.1.8 1.4 1.4.4.6.5 1.3.5 2.2 0 1-.2 1.9-.6 2.5-.4.6-.9 1.1-1.6 1.5-.6.4-1.4.6-2.2.7-.8.1-1.6.2-2.5.2h-4.9v-9.4zm-3.5 26.5h8.9c1.4 0 2.8-.1 4.1-.4 1.4-.3 2.6-.7 3.7-1.3 1.1-.6 2-1.5 2.7-2.5.7-1.1 1-2.4 1-4.1 0-1-.2-1.9-.5-2.8-.3-.9-.8-1.6-1.4-2.2-.6-.6-1.3-1.2-2.1-1.6-.8-.4-1.7-.7-2.7-.7v-.1c1.6-.5 2.9-1.3 3.8-2.4.9-1.1 1.4-2.6 1.4-4.3 0-1.4-.3-2.5-.9-3.4-.6-.9-1.3-1.7-2.2-2.2-.9-.6-2-1-3.2-1.2-1.2-.3-2.4-.4-3.6-.4h-9.1v29.6zm-8.4-29.8h-23.2v3.3h9.8v26.5h3.5V15.8h9.8v-3.3zm-32.7 19.2H154l6.2-14.6h.1l5.8 14.6zm-20.6 10.6h4l3.1-7.3h14.9l3 7.3h4.1L162 12.5h-3.3l-13.2 29.8zm-31.1 0h3.5V28.4h15.9v13.9h3.5V12.5h-3.5v12.6H118V12.5h-3.5v29.8zm-9.8-25.9c-1.3-1.7-2.8-2.8-4.7-3.6-1.9-.7-3.8-1.1-5.8-1.1-2.2 0-4.2.4-6.1 1.2-1.8.8-3.4 1.9-4.8 3.3-1.3 1.4-2.4 3.1-3.1 5-.7 1.9-1.1 3.9-1.1 6.1 0 2.3.4 4.4 1.2 6.3.8 1.9 1.8 3.5 3.2 4.9 1.4 1.4 3 2.5 4.8 3.3 1.8.8 3.8 1.2 6 1.2 2.4 0 4.5-.4 6.4-1.3 1.9-.8 3.5-2.2 4.9-3.9l-2.6-2.2c-1.1 1.3-2.3 2.4-3.7 3.1-1.4.7-3.1 1.1-4.9 1.1-1.7 0-3.2-.3-4.6-1-1.4-.6-2.6-1.5-3.6-2.6s-1.8-2.4-2.3-3.9c-.6-1.5-.8-3.1-.8-4.9 0-1.6.3-3.2.8-4.7.6-1.5 1.3-2.8 2.4-3.9 1-1.1 2.2-2 3.6-2.7 1.4-.7 2.9-1 4.6-1 1.4 0 2.8.3 4.1.9 1.3.6 2.4 1.5 3.3 2.7l2.8-2.3z"/></svg>