<svg xmlns="http://www.w3.org/2000/svg" viewBox="0 0 300 54.8"><path style="fill: #fff" d="M35.5 43.5c0.3-0.1 0.7-0.1 1-0.1l0 0 0 0c0.2 0.1 0.4 0.2 0.5 0.3l7.3 5.6 1.4-9.1c0.1-0.3 0.2-0.6 0.4-0.8l0 0 0 0 0 0 0 0 0 0 0 0 0 0 0 0 0 0 0 0 0 0 0 0 0 0 0 0 0 0 0 0 0 0 0 0 0 0 0 0 0 0 0 0 0 0 0 0 0 0 0 0 0 0 0 0 0 0 0 0 0 0 0 0 6.2-2.5V11.1L28 3.2v43.2L35.5 43.5zM28 0l28 8.8v29.7l-7.4 2.9 -2.1 13.3 -10.7-8.2L28 49.7 0 38.6V8.8L28 0zM273.3 42.3h4.4l8.9-13.2 8.8 13.2h4.7l-11-15.7 10-14.1h-4.4l-7.9 11.6 -8-11.6h-4.5l10 14.1L273.3 42.3zM246.9 38.8c-1.4-0.6-2.7-1.5-3.7-2.6 -1-1.1-1.8-2.4-2.4-3.9 -0.6-1.5-0.9-3.1-0.9-4.8 0-1.7 0.3-3.3 0.9-4.8 0.6-1.5 1.4-2.8 2.4-3.9 1-1.1 2.3-2 3.7-2.6 1.4-0.6 3-1 4.8-1 1.7 0 3.3 0.3 4.8 1 1.4 0.6 2.7 1.5 3.7 2.6 1 1.1 1.8 2.4 2.4 3.9 0.6 1.5 0.9 3.1 0.9 4.8 0 1.7-0.3 3.3-0.9 4.8 -0.6 1.5-1.4 2.8-2.4 3.9 -1 1.1-2.3 2-3.7 2.6 -1.4 0.6-3 1-4.8 1C250 39.7 248.4 39.4 246.9 38.8M257.9 41.8c1.9-0.8 3.5-1.9 4.9-3.3s2.5-3 3.2-5c0.8-1.9 1.2-4 1.2-6.2 0-2.2-0.4-4.3-1.2-6.2 -0.8-1.9-1.8-3.6-3.2-5 -1.4-1.4-3-2.5-4.9-3.3 -1.9-0.8-4-1.2-6.2-1.2 -2.3 0-4.3 0.4-6.2 1.2 -1.9 0.8-3.5 1.9-4.9 3.3 -1.4 1.4-2.5 3-3.2 5 -0.8 1.9-1.2 4-1.2 6.2 0 2.2 0.4 4.3 1.2 6.2 0.8 1.9 1.8 3.6 3.2 5s3 2.5 4.9 3.3c1.9 0.8 4 1.2 6.2 1.2C254 43 256 42.6 257.9 41.8M210.7 28.4h6c0.9 0 1.8 0.1 2.6 0.3 0.9 0.2 1.6 0.5 2.3 0.9 0.7 0.4 1.2 1 1.6 1.7 0.4 0.7 0.6 1.6 0.6 2.6 0 1-0.2 1.8-0.6 2.4 -0.4 0.7-1 1.2-1.7 1.6 -0.7 0.4-1.5 0.7-2.3 0.9 -0.9 0.2-1.7 0.3-2.6 0.3h-6V28.4zM210.7 15.8h5.3c0.8 0 1.6 0.1 2.3 0.2 0.8 0.1 1.5 0.4 2.1 0.7 0.6 0.3 1.1 0.8 1.4 1.4 0.4 0.6 0.5 1.3 0.5 2.2 0 1-0.2 1.9-0.6 2.5 -0.4 0.6-0.9 1.1-1.6 1.5 -0.6 0.4-1.4 0.6-2.2 0.7 -0.8 0.1-1.6 0.2-2.5 0.2h-4.9V15.8zM207.2 42.3h8.9c1.4 0 2.8-0.1 4.1-0.4 1.4-0.3 2.6-0.7 3.7-1.3 1.1-0.6 2-1.5 2.7-2.5 0.7-1.1 1-2.4 1-4.1 0-1-0.2-1.9-0.5-2.8 -0.3-0.9-0.8-1.6-1.4-2.2 -0.6-0.6-1.3-1.2-2.1-1.6 -0.8-0.4-1.7-0.7-2.7-0.7v-0.1c1.6-0.5 2.9-1.3 3.8-2.4 0.9-1.1 1.4-2.6 1.4-4.3 0-1.4-0.3-2.5-0.9-3.4 -0.6-0.9-1.3-1.7-2.2-2.2 -0.9-0.6-2-1-3.2-1.2 -1.2-0.3-2.4-0.4-3.6-0.4h-9.1V42.3zM198.8 12.5h-23.2v3.3h9.8v26.5h3.5V15.8h9.8V12.5zM166.1 31.7H154l6.2-14.6h0.1L166.1 31.7zM145.5 42.3h4l3.1-7.3h14.9l3 7.3h4.1L162 12.5h-3.3L145.5 42.3zM114.4 42.3h3.5V28.4h15.9v13.9h3.5V12.5h-3.5v12.6H118V12.5h-3.5V42.3zM104.6 16.4c-1.3-1.7-2.8-2.8-4.7-3.6 -1.9-0.7-3.8-1.1-5.8-1.1 -2.2 0-4.2 0.4-6.1 1.2 -1.8 0.8-3.4 1.9-4.8 3.3 -1.3 1.4-2.4 3.1-3.1 5 -0.7 1.9-1.1 3.9-1.1 6.1 0 2.3 0.4 4.4 1.2 6.3 0.8 1.9 1.8 3.5 3.2 4.9 1.4 1.4 3 2.5 4.8 3.3 1.8 0.8 3.8 1.2 6 1.2 2.4 0 4.5-0.4 6.4-1.3 1.9-0.8 3.5-2.2 4.9-3.9l-2.6-2.2c-1.1 1.3-2.3 2.4-3.7 3.1 -1.4 0.7-3.1 1.1-4.9 1.1 -1.7 0-3.2-0.3-4.6-1 -1.4-0.6-2.6-1.5-3.6-2.6 -1-1.1-1.8-2.4-2.3-3.9 -0.6-1.5-0.8-3.1-0.8-4.9 0-1.6 0.3-3.2 0.8-4.7 0.6-1.5 1.3-2.8 2.4-3.9 1-1.1 2.2-2 3.6-2.7 1.4-0.7 2.9-1 4.6-1 1.4 0 2.8 0.3 4.1 0.9 1.3 0.6 2.4 1.5 3.3 2.7L104.6 16.4z"/></svg>
