<svg xmlns="http://www.w3.org/2000/svg"><symbol id="arrows" viewBox="0 0 40 34.3"><path d="M19.4 28.8c1.3 1.3 1.3 3.3 0 4.6-.6.6-1.5.9-2.3.9s-1.6-.3-2.3-.9L.9 19.4C.3 18.8 0 18 0 17.1c0-.8.3-1.7.9-2.3L14.9.9c1.3-1.3 3.3-1.3 4.6 0 1.3 1.3 1.3 3.3 0 4.6L7.8 17.1l11.6 11.7zm7.9-11.7L39 5.5c1.3-1.3 1.3-3.3 0-4.6-1.3-1.3-3.3-1.3-4.6 0l-13.9 14c-.6.6-.9 1.5-.9 2.3 0 .8.3 1.7.9 2.3l13.9 13.9c.6.6 1.5.9 2.3.9s1.6-.3 2.3-.9c1.3-1.3 1.3-3.3 0-4.6L27.3 17.1z"/></symbol><symbol id="edit" viewBox="0 0 40 40"><path d="M39.2 6.2L33.8.8c-1-1-2.7-1-3.7 0L4.6 26.2c-.1.1-.2.3-.3.4L.1 38.5c-.1.4 0 .9.3 1.2.1.2.4.3.7.3.1 0 .3 0 .4-.1l11.9-4.3c.2-.1.3-.1.4-.3L39.2 9.9c1.1-1 1.1-2.7 0-3.7zM7 27L26.1 7.9l6 6L13 33l-6-6zm-1.1 2l5.1 5.1L3 37l2.9-8zM37.7 8.4l-4 4-6-6 4-4c.2-.2.4-.2.6 0l5.4 5.4c.1.1.1.4 0 .6z" class="st0"/></symbol><symbol id="delete" viewBox="0 0 40 40"><path d="M20 0C9 0 0 9 0 20s9 20 20 20 20-9 20-20S31 0 20 0zm0 37.8c-9.8 0-17.8-8-17.8-17.8S10.2 2.2 20 2.2s17.8 8 17.8 17.8-8 17.8-17.8 17.8zM21.6 20l6.6 6.6-1.6 1.6-6.6-6.6-6.6 6.6-1.6-1.6 6.6-6.6-6.6-6.6 1.6-1.6 6.6 6.6 6.6-6.6 1.6 1.6-6.6 6.6z" class="st0"/></symbol><symbol id="save" viewBox="0 0 19.7 15"><path d="M7.7 13.5L6.3 15l-1.5-1.5L0 8.7l1.5-1.5L6.2 12l12-12 1.5 1.5-12 12z" class="st0"/></symbol><symbol id="cancel" viewBox="0 0 15 15"><path d="M9 7.5l6 6-1.5 1.5-6-6-6 6L0 13.5l6-6-6-6L1.5 0l6 6 6-6L15 1.5l-6 6z" class="st0"/></symbol><symbol id="chatbox" viewBox="0 0 300 54.8"><path d="M35.5 43.5c.3-.1.7-.1 1-.1.2.1.4.2.5.3l7.3 5.6 1.4-9.1c.1-.3.2-.6.4-.8l6.2-2.5V11.1L28 3.2v43.2l7.5-2.9zM28 0l28 8.8v29.7l-7.4 2.9-2.1 13.3-10.7-8.2-7.8 3.2L0 38.6V8.8L28 0zm245.3 42.3h4.4l8.9-13.2 8.8 13.2h4.7l-11-15.7 10-14.1h-4.4l-7.9 11.6-8-11.6h-4.5l10 14.1-11 15.7zm-26.4-3.5c-1.4-.6-2.7-1.5-3.7-2.6s-1.8-2.4-2.4-3.9c-.6-1.5-.9-3.1-.9-4.8 0-1.7.3-3.3.9-4.8.6-1.5 1.4-2.8 2.4-3.9s2.3-2 3.7-2.6c1.4-.6 3-1 4.8-1 1.7 0 3.3.3 4.8 1 1.4.6 2.7 1.5 3.7 2.6s1.8 2.4 2.4 3.9c.6 1.5.9 3.1.9 4.8 0 1.7-.3 3.3-.9 4.8-.6 1.5-1.4 2.8-2.4 3.9s-2.3 2-3.7 2.6c-1.4.6-3 1-4.8 1-1.7-.1-3.3-.4-4.8-1m11 3c1.9-.8 3.5-1.9 4.9-3.3s2.5-3 3.2-5c.8-1.9 1.2-4 1.2-6.2s-.4-4.3-1.2-6.2c-.8-1.9-1.8-3.6-3.2-5-1.4-1.4-3-2.5-4.9-3.3-1.9-.8-4-1.2-6.2-1.2-2.3 0-4.3.4-6.2 1.2-1.9.8-3.5 1.9-4.9 3.3-1.4 1.4-2.5 3-3.2 5-.8 1.9-1.2 4-1.2 6.2s.4 4.3 1.2 6.2c.8 1.9 1.8 3.6 3.2 5s3 2.5 4.9 3.3c1.9.8 4 1.2 6.2 1.2 2.3 0 4.3-.4 6.2-1.2m-47.2-13.4h6c.9 0 1.8.1 2.6.3.9.2 1.6.5 2.3.9.7.4 1.2 1 1.6 1.7.4.7.6 1.6.6 2.6s-.2 1.8-.6 2.4c-.4.7-1 1.2-1.7 1.6-.7.4-1.5.7-2.3.9-.9.2-1.7.3-2.6.3h-6V28.4zm0-12.6h5.3c.8 0 1.6.1 2.3.2.8.1 1.5.4 2.1.7.6.3 1.1.8 1.4 1.4.4.6.5 1.3.5 2.2 0 1-.2 1.9-.6 2.5-.4.6-.9 1.1-1.6 1.5-.6.4-1.4.6-2.2.7-.8.1-1.6.2-2.5.2h-4.9v-9.4zm-3.5 26.5h8.9c1.4 0 2.8-.1 4.1-.4 1.4-.3 2.6-.7 3.7-1.3 1.1-.6 2-1.5 2.7-2.5.7-1.1 1-2.4 1-4.1 0-1-.2-1.9-.5-2.8-.3-.9-.8-1.6-1.4-2.2-.6-.6-1.3-1.2-2.1-1.6-.8-.4-1.7-.7-2.7-.7v-.1c1.6-.5 2.9-1.3 3.8-2.4.9-1.1 1.4-2.6 1.4-4.3 0-1.4-.3-2.5-.9-3.4-.6-.9-1.3-1.7-2.2-2.2-.9-.6-2-1-3.2-1.2-1.2-.3-2.4-.4-3.6-.4h-9.1v29.6zm-8.4-29.8h-23.2v3.3h9.8v26.5h3.5V15.8h9.8v-3.3zm-32.7 19.2H154l6.2-14.6h.1l5.8 14.6zm-20.6 10.6h4l3.1-7.3h14.9l3 7.3h4.1L162 12.5h-3.3l-13.2 29.8zm-31.1 0h3.5V28.4h15.9v13.9h3.5V12.5h-3.5v12.6H118V12.5h-3.5v29.8zm-9.8-25.9c-1.3-1.7-2.8-2.8-4.7-3.6-1.9-.7-3.8-1.1-5.8-1.1-2.2 0-4.2.4-6.1 1.2-1.8.8-3.4 1.9-4.8 3.3-1.3 1.4-2.4 3.1-3.1 5-.7 1.9-1.1 3.9-1.1 6.1 0 2.3.4 4.4 1.2 6.3.8 1.9 1.8 3.5 3.2 4.9 1.4 1.4 3 2.5 4.8 3.3 1.8.8 3.8 1.2 6 1.2 2.4 0 4.5-.4 6.4-1.3 1.9-.8 3.5-2.2 4.9-3.9l-2.6-2.2c-1.1 1.3-2.3 2.4-3.7 3.1-1.4.7-3.1 1.1-4.9 1.1-1.7 0-3.2-.3-4.6-1-1.4-.6-2.6-1.5-3.6-2.6s-1.8-2.4-2.3-3.9c-.6-1.5-.8-3.1-.8-4.9 0-1.6.3-3.2.8-4.7.6-1.5 1.3-2.8 2.4-3.9 1-1.1 2.2-2 3.6-2.7 1.4-.7 2.9-1 4.6-1 1.4 0 2.8.3 4.1.9 1.3.6 2.4 1.5 3.3 2.7l2.8-2.3z"/></symbol><symbol id="search" viewBox="0 0 35.5 35.7"><path fill="rgba(255,255,255,.35)" d="M25.5 22.2c1.6-2.3 2.6-5.1 2.6-8.2 0-7.7-6.3-14-14-14C6.3 0 0 6.3 0 14.1s6.3 14.1 14.1 14.1c2.9 0 5.6-.9 7.8-2.4l9.7 9.6c.6.6 1.9.3 2.9-.7s1.3-2.3.7-2.9l-9.7-9.6zm-11.3 1.7c-5.5 0-9.9-4.4-9.9-9.9s4.4-9.9 9.9-9.9 9.9 4.4 9.9 9.9-4.4 9.9-9.9 9.9z"/></symbol><symbol id="smile" viewBox="0 0 60 60"><path d="M30 60C13.5 60 0 46.5 0 30S13.5 0 30 0s30 13.5 30 30-13.5 30-30 30zm0-56.2C15.6 3.8 3.8 15.6 3.8 30c0 14.4 11.7 26.2 26.2 26.2 14.4 0 26.2-11.7 26.2-26.2C56.2 15.6 44.4 3.8 30 3.8zm-8.3 15c-1.9 0-3.5 1.6-3.5 3.5s1.6 3.5 3.5 3.5 3.5-1.6 3.5-3.5c0-2-1.6-3.5-3.5-3.5zm16.2 0c-1.9 0-3.5 1.6-3.5 3.5s1.6 3.5 3.5 3.5 3.5-1.6 3.5-3.5c-.1-2-1.6-3.5-3.5-3.5zm-1.8 25.3c2-.8 3.8-2 5.3-3.6 1.5-1.5 2.7-3.3 3.6-5.3.4-.9-.1-2-1-2.4-.9-.4-2 .1-2.4 1-.6 1.6-1.6 3-2.8 4.2-1.2 1.2-2.6 2.1-4.2 2.8-1.6.6-3.2 1-4.9 1-1.7 0-3.3-.3-4.9-1-1.6-.6-3-1.6-4.2-2.8-1.2-1.2-2.1-2.6-2.8-4.2-.4-.9-1.5-1.4-2.4-1-.9.4-1.4 1.5-1 2.4.8 2 2 3.8 3.6 5.3 1.5 1.5 3.3 2.7 5.3 3.6 2 .8 4.1 1.3 6.3 1.3 2.4-.1 4.5-.5 6.5-1.3z"/></symbol><symbol id="send" viewBox="0 0 67.9 60"><path d="M66.8 28.2L2.8.2C2-.2 1.2 0 .6.5c-.5.6-.7 1.4-.4 2.2L11.4 30 .2 57.3c-.3.7-.1 1.6.4 2.1.4.4.9.6 1.4.6.3 0 .5-.1.8-.2l64-28.1c.7-.3 1.2-1 1.2-1.8-.1-.7-.5-1.4-1.2-1.7zM5.6 54.4l9.2-22.5h15.9c1.1 0 1.9-.9 1.9-1.9 0-1.1-.9-1.9-1.9-1.9H14.8L5.6 5.6 61.2 30 5.6 54.4z"/></symbol></svg>