<svg xmlns="http://www.w3.org/2000/svg" viewBox="0 0 67.9 60" width="67.9" height="60"><metadata><?xpacket begin="﻿" id="W5M0MpCehiHzreSzNTczkc9d"?>
<x:xmpmeta xmlns:x="adobe:ns:meta/" x:xmptk="Adobe XMP Core 5.6-c137 79.159768, 2016/08/11-13:24:42        ">
   <rdf:RDF xmlns:rdf="http://www.w3.org/1999/02/22-rdf-syntax-ns#">
      <rdf:Description rdf:about=""/>
   </rdf:RDF>
</x:xmpmeta>
                                                                                                    
                                                                                                    
                                                                                                    
                                                                                                    
                                                                                                    
                                                                                                    
                                                                                                    
                                                                                                    
                                                                                                    
                                                                                                    
                                                                                                    
                                                                                                    
                                                                                                    
                                                                                                    
                                                                                                    
                                                                                                    
                                                                                                    
                                                                                                    
                                                                                                    
                                                                                                    
                           
<?xpacket end="w"?></metadata>
<path d="M66.8 28.2L2.8.2C2-.2 1.2 0 .6.5c-.5.6-.7 1.4-.4 2.2L11.4 30 .2 57.3c-.3.7-.1 1.6.4 2.1.4.4.9.6 1.4.6.3 0 .5-.1.8-.2l64-28.1c.7-.3 1.2-1 1.2-1.8-.1-.7-.5-1.4-1.2-1.7zM5.6 54.4l9.2-22.5h15.9c1.1 0 1.9-.9 1.9-1.9 0-1.1-.9-1.9-1.9-1.9H14.8L5.6 5.6 61.2 30 5.6 54.4z"/></svg>