<svg xmlns="http://www.w3.org/2000/svg" viewBox="0 0 60 60" width="60" height="60"><metadata><?xpacket begin="﻿" id="W5M0MpCehiHzreSzNTczkc9d"?>
<x:xmpmeta xmlns:x="adobe:ns:meta/" x:xmptk="Adobe XMP Core 5.6-c137 79.159768, 2016/08/11-13:24:42        ">
   <rdf:RDF xmlns:rdf="http://www.w3.org/1999/02/22-rdf-syntax-ns#">
      <rdf:Description rdf:about=""/>
   </rdf:RDF>
</x:xmpmeta>
                                                                                                    
                                                                                                    
                                                                                                    
                                                                                                    
                                                                                                    
                                                                                                    
                                                                                                    
                                                                                                    
                                                                                                    
                                                                                                    
                                                                                                    
                                                                                                    
                                                                                                    
                                                                                                    
                                                                                                    
                                                                                                    
                                                                                                    
                                                                                                    
                                                                                                    
                                                                                                    
                           
<?xpacket end="w"?></metadata>
<path d="M30 60C13.5 60 0 46.5 0 30S13.5 0 30 0s30 13.5 30 30-13.5 30-30 30zm0-56.2C15.6 3.8 3.8 15.6 3.8 30c0 14.4 11.7 26.2 26.2 26.2 14.4 0 26.2-11.7 26.2-26.2C56.2 15.6 44.4 3.8 30 3.8zm-8.3 15c-1.9 0-3.5 1.6-3.5 3.5s1.6 3.5 3.5 3.5 3.5-1.6 3.5-3.5c0-2-1.6-3.5-3.5-3.5zm16.2 0c-1.9 0-3.5 1.6-3.5 3.5s1.6 3.5 3.5 3.5 3.5-1.6 3.5-3.5c-.1-2-1.6-3.5-3.5-3.5zm-1.8 25.3c2-.8 3.8-2 5.3-3.6 1.5-1.5 2.7-3.3 3.6-5.3.4-.9-.1-2-1-2.4-.9-.4-2 .1-2.4 1-.6 1.6-1.6 3-2.8 4.2-1.2 1.2-2.6 2.1-4.2 2.8-1.6.6-3.2 1-4.9 1-1.7 0-3.3-.3-4.9-1-1.6-.6-3-1.6-4.2-2.8-1.2-1.2-2.1-2.6-2.8-4.2-.4-.9-1.5-1.4-2.4-1-.9.4-1.4 1.5-1 2.4.8 2 2 3.8 3.6 5.3 1.5 1.5 3.3 2.7 5.3 3.6 2 .8 4.1 1.3 6.3 1.3 2.4-.1 4.5-.5 6.5-1.3z"/></svg>